<?xml version="1.0" encoding="UTF-8" standalone="no"?><!DOCTYPE svg PUBLIC "-//W3C//DTD SVG 1.1//EN" "http://www.w3.org/Graphics/SVG/1.1/DTD/svg11.dtd"><svg width="100%" height="100%" viewBox="0 0 50 50" version="1.1" xmlns="http://www.w3.org/2000/svg" xmlns:xlink="http://www.w3.org/1999/xlink" xml:space="preserve" xmlns:serif="http://www.serif.com/" style="fill-rule:evenodd;clip-rule:evenodd;stroke-linecap:round;stroke-linejoin:round;"><rect id="p1" x="0" y="0" width="50" height="50" style="fill:none;"/><g><rect x="9.606" y="7.961" width="1.842" height="4.621" style="fill:#fff;"/><path d="M11.447,7.961l9.821,-0c2.031,-0 3.82,0.434 5.367,1.301c1.547,0.867 2.746,2.09 3.597,3.668c0.852,1.578 1.278,3.406 1.278,5.484c-0,2.063 -0.426,3.879 -1.278,5.449c-0.851,1.571 -2.05,2.789 -3.597,3.657c-1.547,0.867 -3.336,1.3 -5.367,1.3l-9.821,0l0,-3.14l9.985,-0c1.328,-0 2.5,-0.305 3.515,-0.914c1.016,-0.61 1.801,-1.461 2.356,-2.555c0.554,-1.094 0.832,-2.359 0.832,-3.797c-0,-1.453 -0.278,-2.73 -0.832,-3.832c-0.555,-1.102 -1.34,-1.957 -2.356,-2.566c-1.015,-0.61 -2.187,-0.914 -3.515,-0.914l-9.985,-0l0,-3.141Z" style="fill:#ff4343;"/><path d="M11.447,28.82l0,13.219l-3.375,0l0,-34.078l2.461,-0l0,3.141l0.914,-0l0,14.578l-0.914,-0l0,3.14l0.914,0Z" style="fill:#fff;"/><rect x="10.308" y="25.127" width="1.139" height="4.031" style="fill:#fff;"/><path d="M29.251,21.51c-2.468,1.755 -5.704,1.95 -8.337,0.576m-8.122,-6.416c2.473,-1.76 5.72,-1.952 8.356,-0.566m2.822,5.342c2.523,-1.59 3.984,-4.501 3.695,-7.527m-9.631,3.839c-2.499,1.595 -3.944,4.492 -3.656,7.502m9.726,-7.299c-0.116,-2.979 -1.907,-5.698 -4.671,-6.961m-1.492,10.273c0.136,2.957 1.922,5.652 4.669,6.906m4.592,-14.77c3.413,3.414 3.413,8.948 -0,12.361c-3.414,3.413 -8.948,3.413 -12.361,-0c-3.413,-3.413 -3.413,-8.947 0,-12.361c3.413,-3.413 8.947,-3.413 12.361,0Zm-3.708,3.709c1.365,1.365 1.365,3.579 -0,4.944c-1.366,1.365 -3.579,1.365 -4.945,-0c-1.365,-1.365 -1.365,-3.579 0,-4.944c1.366,-1.366 3.579,-1.366 4.945,-0Z" style="fill:none;fill-rule:nonzero;stroke:#ff4343;stroke-width:1.75px;"/><text x="30.186px" y="42.039px" style="font-family:'Bahnschrift', sans-serif;font-size:48px;fill:#fff;">1</text></g></svg>